<?xml version="1.0" encoding="utf-8"?>
<!-- Generator: Adobe Illustrator 22.0.1, SVG Export Plug-In . SVG Version: 6.00 Build 0)  -->
<svg version="1.1" id="Layer_1" xmlns="http://www.w3.org/2000/svg" xmlns:xlink="http://www.w3.org/1999/xlink" x="0px" y="0px"
	 width="919.4px" height="300.4px" viewBox="0 0 919.4 300.4" style="enable-background:new 0 0 919.4 300.4;" xml:space="preserve"
	>
<style type="text/css">
	.st0{opacity:0.2;}
	.st1{opacity:0.6;}
	.st2{fill:#E8EAED;}
	.st3{fill:#A8D5F4;}
	.st4{fill:#96C7E2;}
	.st5{fill:#9AC8E2;}
	.st6{fill:#F8F9FA;}
	.st7{fill:url(#SVGID_1_);}
	.st8{fill:#C5221F;}
	.st9{fill:url(#SVGID_2_);}
	.st10{fill:url(#SVGID_3_);}
	.st11{fill:url(#SVGID_4_);}
	.st12{opacity:0.3;fill:url(#SVGID_5_);enable-background:new    ;}
	.st13{fill:url(#SVGID_6_);}
	.st14{fill:#E1F4FF;}
	.st15{fill:url(#SVGID_7_);}
	.st16{fill:url(#SVGID_8_);}
	.st17{fill:#FFD89F;}
	.st18{fill:#3B0500;}
	.st19{fill:#FFA47C;}
	.st20{fill:#1D5383;}
	.st21{fill:#065A93;}
	.st22{fill:#61A9D1;}
	.st23{fill:#0A63A0;}
	.st24{fill:#6FA7C6;}
	.st25{fill:#2C3534;}
	.st26{fill:#276EAE;}
	.st27{fill:url(#SVGID_9_);}
	.st28{fill:#576A68;}
	.st29{fill:#278DAE;}
	.st30{fill:#0E1211;}
	.st31{fill:#FFBD95;}
	.st32{fill:#C9DAD8;}
	.st33{fill:#0061A3;}
	.st34{fill:#ACBBB9;}
	.st35{fill:#E4EDEB;}
	.st36{fill:url(#SVGID_10_);}
	.st37{fill:#F4F8F7;}
	.st38{fill:#3A4745;}
	.st39{fill:#8D3B26;}
	.st40{fill:#0096EA;}
	.st41{fill:#FFCC00;}
	.st42{fill:#FFB136;}
	.st43{clip-path:url(#SVGID_12_);}
	.st44{fill:url(#SVGID_13_);}
	.st45{fill:#FFCAAA;}
	.st46{fill:url(#SVGID_14_);}
	.st47{opacity:0.1;fill:#FF4500;enable-background:new    ;}
	.st48{fill:url(#SVGID_15_);}
	.st49{fill:url(#SVGID_16_);}
	.st50{fill:#1D2323;}
	.st51{fill:url(#SVGID_17_);}
	.st52{fill:url(#SVGID_18_);}
	.st53{fill:#368160;}
	.st54{fill:#74B57E;}
	.st55{fill:url(#SVGID_19_);}
	.st56{fill:#EFEDD1;}
	.st57{fill:#E0DAA1;}
	.st58{clip-path:url(#SVGID_21_);}
	.st59{fill:url(#SVGID_22_);}
	.st60{fill:url(#SVGID_23_);}
	.st61{fill:#004C7F;}
	.st62{fill:#005893;}
	.st63{fill:#055D99;}
	.st64{fill:#00558E;}
	.st65{fill:url(#SVGID_24_);}
	.st66{fill:url(#SVGID_25_);}
	.st67{fill:url(#SVGID_26_);}
	.st68{fill:url(#SVGID_27_);}
	.st69{fill:url(#SVGID_28_);}
	.st70{fill:url(#SVGID_29_);}
	.st71{fill:url(#SVGID_30_);}
	.st72{fill:#0768AA;}
	.st73{fill:#2392EC;}
	.st74{fill:#291417;}
	.st75{fill:#42262B;}
	.st76{fill:#2E0008;}
	.st77{fill:#583339;}
	.st78{fill:#0863A0;}
	.st79{fill:url(#SVGID_31_);}
	.st80{fill:url(#SVGID_32_);}
	.st81{fill:url(#SVGID_33_);}
	.st82{fill:url(#SVGID_34_);}
	.st83{fill:url(#SVGID_35_);}
</style>
<title>question_background22222</title>
<g>
	<g class="st0">
		<g class="st1">
			<path class="st2" d="M794,136.6l-42.8-4.2v48h52.5v-38.1C803.7,139.5,799.7,137.1,794,136.6z"/>
		</g>
		<path class="st3" d="M253.2,101.2H247c0-5.9-8.2-10.6-18.2-10.6s-18.2,4.7-18.2,10.6h-6.2v9h4.2v28.3H249v-28.2h4.2L253.2,101.2
			L253.2,101.2z"/>
		<path class="st4" d="M292.4,145.9v-9.5l-105.7-25.9l-53.2,25.9h17.3v11.3H144v4.4h-10.5v5.9h100.9l8.5,8.4H284l4.8-8.4H312v-5
			L292.4,145.9L292.4,145.9z M167.6,147.7h-8.4v-9.6c0.1-1.1,1.1-1.9,2.2-1.8l0,0h0.1h3.8c1.1-0.2,2.1,0.6,2.3,1.7v0.1L167.6,147.7
			L167.6,147.7z M185.2,147.7h-8.4v-9.6c0.1-1.1,1.1-1.9,2.2-1.8h3.9c1.1-0.2,2.1,0.6,2.3,1.7v0.1V147.7z"/>
		<path class="st5" d="M773.4,117.8c0-3-5.7-5.5-12.6-5.5h-1.8V99.2c0-3.1-5.7-5.6-12.6-5.6h-5.2V69.2l-24.9-4.5l-23.7,3v24.7
			l-14.7,4.3l-2.8,11l-26.5,1.2v-9.7l-11.4-2l-11.5,2v63.2h147.5V117.8z"/>
		<path class="st3" d="M838.9,192.8c-0.1-10.7-6.2-20.9-16.6-28.1c-7.8-4.5-16.6-6.7-25.6-6.4H663.8l-1.9-6.8h-15l-1-0.4
			c-2.8-1.1-5.9-1.2-8.8-0.2l-8.2,3h-5.6c-2.1-0.1-3.9,1.4-4.2,3.5v0.8H607v-4c-0.1-1.2-1.1-2.2-2.3-2.4l-11.8-2.5l-11.6,1.3
			l0.6,7.6h-475c-9-0.3-17.7,1.9-25.5,6.4l-0.5,0.3c-9.9,6.1-16,16.5-16.7,28.1l-0.4,21.1h775.4L838.9,192.8z"/>
		<path class="st3" d="M851,194.7l-65.8-28v-10.9h3.4v-9.5h-5.5V142l-8.7-0.2L767,128h-12.4l-7.4,13.8l-8.7,0.2v4.3H733v9.5h3.4
			v15.8l31.3,24.4L851,194.7z"/>
		<path class="st3" d="M747,156h26v5h-26V156z M747,164h26v5h-26V164z"/>
		<path class="st4" d="M186.2,160.4v-1.7c0-1.5,2.5-2.7,5.5-2.7h8v-6.8l23.9-10.8l22.4,10.8v4.3h15.6c2,0,3.5,0.8,3.5,1.7v37.1
			H110.6L186.2,160.4z"/>
		<path class="st3" d="M119,135.3c-1.5-3-6.1-5.3-11.5-5.3c-2.8,0-5.6,0.7-8,2l-1.6-0.2c-3.6,0-6.6,1.9-6.6,4.2c0,0.5,0.2,1,0.4,1.4
			c-4,1.2-6.7,3.7-6.7,6.6c0,4,5.2,7.3,11.6,7.3c1.9,0,3.7-0.4,5.5-1v8.7h7.3v-5.1l2.6,0.1c9.4,0,17-4.4,17-9.8c0-4-4.1-7.4-10-9
			V135.3z"/>
		<path class="st6" d="M165.9,149l1.6-0.6h-8.4l-1.6,0.6H165.9z M156.3,153.7l1.7-0.7h-8.3l-1.7,0.7H156.3z"/>
		
			<linearGradient id="SVGID_1_" gradientUnits="userSpaceOnUse" x1="-1521.4048" y1="-161" x2="-1521.4048" y2="-160" gradientTransform="matrix(21 0 0 -1 32067 -2)">
			<stop  offset="0" style="stop-color:#F8F9FA;stop-opacity:0"/>
			<stop  offset="0.15" style="stop-color:#F8F9FA;stop-opacity:0.2"/>
			<stop  offset="0.32" style="stop-color:#F8F9FA;stop-opacity:0.5"/>
			<stop  offset="0.48" style="stop-color:#F8F9FA;stop-opacity:0.7"/>
			<stop  offset="0.64" style="stop-color:#F8F9FA;stop-opacity:0.8"/>
			<stop  offset="0.78" style="stop-color:#F8F9FA;stop-opacity:0.9"/>
			<stop  offset="0.9" style="stop-color:#F8F9FA"/>
			<stop  offset="1" style="stop-color:#F8F9FA"/>
		</linearGradient>
		<path class="st7" d="M125.1,159l2.9-1h-18.1l-2.9,1H125.1z"/>
		<path class="st8" d="M98.1,159L98.1,159z"/>
		
			<linearGradient id="SVGID_2_" gradientUnits="userSpaceOnUse" x1="-1436.9358" y1="360.3333" x2="-1419.3358" y2="360.3333" gradientTransform="matrix(19 0 0 -6 28848 2323)">
			<stop  offset="0" style="stop-color:#F8F9FA;stop-opacity:0"/>
			<stop  offset="0.15" style="stop-color:#F8F9FA;stop-opacity:0.2"/>
			<stop  offset="0.32" style="stop-color:#F8F9FA;stop-opacity:0.5"/>
			<stop  offset="0.48" style="stop-color:#F8F9FA;stop-opacity:0.7"/>
			<stop  offset="0.64" style="stop-color:#F8F9FA;stop-opacity:0.8"/>
			<stop  offset="0.78" style="stop-color:#F8F9FA;stop-opacity:0.9"/>
			<stop  offset="0.9" style="stop-color:#F8F9FA"/>
			<stop  offset="1" style="stop-color:#F8F9FA"/>
		</linearGradient>
		<path class="st9" d="M103,158c-2.4,0-4.8,0.2-7.2,0.6c-4.2,0.7-8.1,2.4-11.4,5L84,164c1.9-0.2,3.7-0.6,5.4-1.4
			c3.9-2.5,8.3-4,12.9-4.2L103,158L103,158z"/>
		
			<linearGradient id="SVGID_3_" gradientUnits="userSpaceOnUse" x1="-1437.5769" y1="5.85" x2="-1437.5769" y2="7.44" gradientTransform="matrix(9.99 0 0 -2 14501.3994 463)">
			<stop  offset="0" style="stop-color:#F8F9FA;stop-opacity:0"/>
			<stop  offset="0.15" style="stop-color:#F8F9FA;stop-opacity:0.2"/>
			<stop  offset="0.32" style="stop-color:#F8F9FA;stop-opacity:0.5"/>
			<stop  offset="0.48" style="stop-color:#F8F9FA;stop-opacity:0.7"/>
			<stop  offset="0.64" style="stop-color:#F8F9FA;stop-opacity:0.8"/>
			<stop  offset="0.78" style="stop-color:#F8F9FA;stop-opacity:0.9"/>
			<stop  offset="0.9" style="stop-color:#F8F9FA"/>
			<stop  offset="1" style="stop-color:#F8F9FA"/>
		</linearGradient>
		<path class="st10" d="M136.5,158c-2,1.1-2,2,0.1,2c2.9-0.2,5.7-0.9,8.4-2H136.5z"/>
		<path class="st6" d="M149.6,148.6l1.4-0.6h-6v0.6H149.6z M138.5,153.7l1.5-0.7h-6v0.7H138.5z M183.8,149l1.6-0.6H177l-1.6,0.6
			H183.8z M319.9,160.4l5-2H304l-5,2H319.9z M173.7,154.1l1.7-0.7h-8.3l-1.7,0.7H173.7z"/>
		
			<linearGradient id="SVGID_4_" gradientUnits="userSpaceOnUse" x1="-1437.6293" y1="6.1513" x2="-1437.6293" y2="7.7361" gradientTransform="matrix(9.99 0 0 -2 14520.3994 463)">
			<stop  offset="0" style="stop-color:#F8F9FA;stop-opacity:0"/>
			<stop  offset="0.15" style="stop-color:#F8F9FA;stop-opacity:0.2"/>
			<stop  offset="0.32" style="stop-color:#F8F9FA;stop-opacity:0.5"/>
			<stop  offset="0.48" style="stop-color:#F8F9FA;stop-opacity:0.7"/>
			<stop  offset="0.64" style="stop-color:#F8F9FA;stop-opacity:0.8"/>
			<stop  offset="0.78" style="stop-color:#F8F9FA;stop-opacity:0.9"/>
			<stop  offset="0.9" style="stop-color:#F8F9FA"/>
			<stop  offset="1" style="stop-color:#F8F9FA"/>
		</linearGradient>
		<path class="st11" d="M155,158.4c-2,1.1-2,2,0.1,2c2.9-0.2,5.7-0.9,8.4-2H155z"/>
		
			<linearGradient id="SVGID_5_" gradientUnits="userSpaceOnUse" x1="-1587.8268" y1="456.0471" x2="-1588.1158" y2="456.6153" gradientTransform="matrix(168 0 0 -77.3 266866 35457.1992)">
			<stop  offset="0" style="stop-color:#FFFFFF;stop-opacity:0"/>
			<stop  offset="9.000000e-02" style="stop-color:#FFFFFF;stop-opacity:0.1"/>
			<stop  offset="0.26" style="stop-color:#FFFFFF;stop-opacity:0.2"/>
			<stop  offset="0.5" style="stop-color:#FFFFFF;stop-opacity:0.4"/>
			<stop  offset="0.78" style="stop-color:#FFFFFF;stop-opacity:0.7"/>
			<stop  offset="1" style="stop-color:#FFFFFF"/>
		</linearGradient>
		<path class="st12" d="M167.4,148.4h-8v-9.2c0-0.5,0.2-1,0.6-1.1L0,215.2h29.4"/>
		
			<linearGradient id="SVGID_6_" gradientUnits="userSpaceOnUse" x1="-1544.7544" y1="-578.08" x2="-1543.7577" y2="-578.08" gradientTransform="matrix(30 0 0 -0.6 46565 -245)">
			<stop  offset="0" style="stop-color:#F1F3F4;stop-opacity:0"/>
			<stop  offset="0.22" style="stop-color:#F1F3F4;stop-opacity:0.3"/>
			<stop  offset="0.5" style="stop-color:#F1F3F4;stop-opacity:0.6"/>
			<stop  offset="0.73" style="stop-color:#F1F3F4;stop-opacity:0.8"/>
			<stop  offset="0.91" style="stop-color:#F1F3F4;stop-opacity:0.9"/>
			<stop  offset="1" style="stop-color:#F1F3F4"/>
		</linearGradient>
		<path class="st13" d="M252.2,102.1v-0.6h-29.9L252.2,102.1z"/>
		<path class="st14" d="M30.9,214.2h845.6c1.5,0,3.3,0.8,3.4,1.6c0.5,2,0.3,5.5-6.1,8.5c-9.8,4.6-23.7,7.7-53.2,7.7
			c-9.9,0-19.6-0.5-29.4-1.5l0.6,3.2c0.3,1.7-4,1.7-5.7,0l-4-4.2l-3.3-0.5c-17.7,9-46.2,14.6-81,14.6c-4.8,0-9.7-0.1-14.5-0.3
			c-4,4.4-15,8.4-29.4,8.4c-8.6,0.1-17-1.1-25.2-3.4c-3,3.5-9.7,4.9-17.5,4.9c-2.4,0-4.9-0.3-7.3-0.7c-12,7.3-23.3,9.2-42.7,8.2
			c-9-0.3-17.8-2-26.3-5l-2.4,6.2c-0.5,1.1-3.1,1.1-3.8,0l-3.3-5.1l-4.2,10.1c-0.4,1.1-3,1.1-3.8,0l-5-8c-6.7,4.8-20.8,9.3-49.5,9.3
			c-37,0-51.4-11.5-51.4-11.5c-4.7,3.6-10.1,6-15.7,7.2c-12.1,2.5-24.5,2.4-36.5-0.3c-5.2-1-10.1-3-14.6-5.8
			c-5.3-3.7-4.5-5.3-4.5-5.3s-5.2,2-16.5,3.2c-9.9,0.9-19.7,1-29.6,0.3c-19.9-1.3-24.9-4.8-25.9-7.1c-7.1,1.8-14.5,2.6-21.7,2.6
			c-6.8,0.1-13.5-0.8-19.9-2.7c-4,1.2-8.1,1.9-12.3,1.9c-10.7,0-17.7-4.3-17.7-10c-7.3-1.3-14.4-3-21.4-5.1
			c-20.9,4.6-36.9,2.2-45.3-3.9c-13.4,2.5-26.9,3.8-40.6,3.8c-16.9,0-31.5-2-42-5.6l-9,9.3c-1.8,1.9-6.6,1.9-5.8,0l5.7-13.2h-0.2
			l-7.4,6.7c-2,1.8-6.3,1.8-5.7,0l3.9-11.5c0.3-0.7,0.9-1.2,1.6-1.4l-3-3.5C26.8,215.5,28.8,214.2,30.9,214.2L30.9,214.2z"/>
		<path class="st3" d="M30.2,215.2h846.6c0.7,0.1,1.4-0.2,1.8-0.7c0.4-0.5,0.6-1.2,0.5-1.8c-1-3.1-3.9-8.6-12.4-13.2
			c-12.7-7-28.4-11.7-57-11.7c-9.3,0-18.4,0.8-27.6,2.2l-1.2-4.6c-0.6-2.6-4.9-2.6-5.5,0l-1.6,6.2l-3,0.7
			c-25.9-14.6-55.1-21.8-84.8-21.2c-4.6,0-9.2,0.1-13.7,0.4c-8.3-7.9-19.2-12.1-30.6-11.8c-7.9-0.2-15.7,1.4-22.9,4.7
			c-3.8-5-10.3-6.8-17.6-6.8c-2.3,0-4.6,0.3-6.8,1c-12.7-10-23.6-12.7-41.3-11.3c-8.3,0.4-16.4,2.7-23.7,6.7l-3-8.3
			c-0.5-1-1.8-1.3-2.7-0.8l0,0c-0.3,0.2-0.6,0.5-0.8,0.8l-2.5,7l-5-13.7c-0.5-1-1.8-1.3-2.7-0.8l0,0c-0.3,0.2-0.6,0.5-0.8,0.8
			l-3.8,10.6c-6.7-6.3-19.9-12.3-46.2-12.3c-33.9,0-47.7,15.3-47.7,15.3c-1.2-2-7-7.4-14-9.8c-11.1-3.3-22.9-3.1-33.9,0.6
			c-6.8,2.2-11.3,5-14.2,7.7c-5.6,5-5.2,7.3-5.2,7.3s-4.5-2.8-14.9-4.4c-9.2-1.3-18.4-1.4-27.6-0.4c-18.9,1.8-24.6,6.5-26.2,9.9
			c-12.7-5-26.7-5-39.4,0c-3.4-1.7-7.1-2.6-10.9-2.6c-10,0-18.3,6-20.6,14c-7.8,2-15.4,4.6-22.9,7.6c-15.2-6.5-32.6-4.3-45.6,5.7
			c-12-3.8-24.4-5.7-36.9-5.6c-15.2-0.1-30.3,2.7-44.4,8.4l-2.5-13.6c-0.5-2.8-5-2.8-5.6,0l-3.5,19.4h-0.3l-2.5-10.1
			c-0.7-2.5-5-2.5-5.6,0l-4.3,17.2c-0.2,0.8,0,1.6,0.6,2.1l-5.6,5.6C27.2,213.2,28.2,215.2,30.2,215.2L30.2,215.2z"/>
		
			<linearGradient id="SVGID_7_" gradientUnits="userSpaceOnUse" x1="-817.6691" y1="205.046" x2="-840.3891" y2="213.146" gradientTransform="matrix(16.03 0 0 -37 24831.6816 16710)">
			<stop  offset="0" style="stop-color:#BDC1C6"/>
			<stop  offset="5.000000e-02" style="stop-color:#C1C5C9"/>
			<stop  offset="0.41" style="stop-color:#DBDEE1"/>
			<stop  offset="0.74" style="stop-color:#EBEEEF"/>
			<stop  offset="1" style="stop-color:#F1F3F4"/>
		</linearGradient>
		<path class="st15" d="M818.8,132.2l-5.8,32.2c-0.1,0.6,0.1,1.3,0.5,1.8s1,0.8,1.7,0.8h11.6c0.7,0,1.3-0.3,1.7-0.8s0.6-1.2,0.5-1.8
			l-5.8-32.2c0-1.2-1-2.2-2.2-2.2S818.8,131,818.8,132.2z"/>
		
			<linearGradient id="SVGID_8_" gradientUnits="userSpaceOnUse" x1="-862.8811" y1="103.2698" x2="-882.4911" y2="113.9698" gradientTransform="matrix(11.97 0 0 -18.89 18334.4512 8303.0605)">
			<stop  offset="0" style="stop-color:#BDC1C6"/>
			<stop  offset="5.000000e-02" style="stop-color:#C1C5C9"/>
			<stop  offset="0.41" style="stop-color:#DBDEE1"/>
			<stop  offset="0.74" style="stop-color:#EBEEEF"/>
			<stop  offset="1" style="stop-color:#F1F3F4"/>
		</linearGradient>
		<path class="st16" d="M808.5,148l-3.4,13.7c-0.2,0.8,0,1.6,0.4,2.3c0.5,0.6,1.2,1,2,1h7c0.8,0,1.5-0.4,2-1
			c0.5-0.7,0.6-1.5,0.4-2.3l-3.4-13.7c-0.4-1.4-1.8-2.2-3.2-1.8C809.4,146.5,808.7,147.1,808.5,148z"/>
	</g>
	<polygon class="st17" points="116.6,168.7 115.8,167 114.9,168.7 113.1,168.9 114.4,170.2 114.1,172.1 115.8,171.2 117.4,172.1 
		117.1,170.2 118.4,168.9 	"/>
	<polygon class="st17" points="139.3,140.8 138.5,139.1 137.7,140.8 135.8,141.1 137.2,142.4 136.9,144.2 138.5,143.4 140.2,144.2 
		139.9,142.4 141.2,141.1 	"/>
	<polygon class="st17" points="38.3,132.4 37.2,130 36,132.4 33.3,132.8 35.2,134.7 34.8,137.4 37.2,136.1 39.5,137.4 39.1,134.7 
		41,132.8 	"/>
	<polygon class="st17" points="11.3,157.2 10.4,155.6 9.6,157.2 7.8,157.5 9.1,158.8 8.8,160.7 10.4,159.8 12.1,160.7 11.8,158.8 
		13.1,157.5 	"/>
	<polygon class="st17" points="28.1,203.4 27.5,202.3 27,203.4 25.7,203.6 26.6,204.5 26.4,205.8 27.5,205.2 28.7,205.8 28.5,204.5 
		29.4,203.6 	"/>
	<path class="st3" d="M81,240c-27.5,0-49.8,2.9-49.8,6.4s22.3,6.4,49.8,6.4s49.8-2.9,49.8-6.4S108.5,240,81,240z"/>
	<path class="st18" d="M48.3,243.6l35.4-83.1c0.2-0.5,0.8-0.7,1.3-0.5l0.1,0.1c0.5,0.2,0.7,0.8,0.5,1.3l-35.4,83.1
		c-0.2,0.5-0.8,0.7-1.3,0.5l-0.1-0.1C48.3,244.7,48.1,244.1,48.3,243.6z"/>
	<path class="st19" d="M93.4,185.6c-2.5-0.9-6.7-3.9-7.6-2.1s3.5,3.7,7.7,5.6s5.7,2.4,6.2,0.1C100.1,187.4,95.9,186.5,93.4,185.6z"
		/>
	<path class="st19" d="M85.7,180.1c-1.7-1.9-4.2-4.7-4.2-4.7l-1,0.8c0,0,1.5,3,2.6,4.9c1.2,2,2.3,3.6,3.4,4.2
		c0.6,0.5,1.6,0.4,2.1-0.3c0.2-0.3,0.3-0.6,0.3-1C88.5,183.2,87.3,182,85.7,180.1z"/>
	<path class="st19" d="M82.4,171.2c-0.4,0-0.8,1.1-1.2,1.9c-0.6,1.2-1.2,1.4-1.3,2.2s0.4,1.3,1,1c0.7-0.4,1.2-1.1,1.3-1.9
		C82.5,173.4,82.8,171.2,82.4,171.2z"/>
	<path class="st20" d="M97.4,186.3c-1.7-0.8-6.4-2.9-6.6-2.7c-0.9,1-1.5,2.1-1.8,3.4c-0.1,0.4,4.1,2.9,6.2,3.8
		c0.6,0.3,4.2,1.7,5.2-0.4C101.1,188.9,100.2,187.6,97.4,186.3z"/>
	<path class="st21" d="M99.5,241.6c-0.6,0.7-1.3,1.3-2.1,1.7c-0.8,0.2-3.5,0.7-4.3,1.3c-0.2,0.1-0.3,0.6-0.2,0.8
		c0.4,0.5,3.6,0.3,4.8,0.3c0.9-0.1,3.5-0.5,3.5-0.5l0.1,0.3l2.7-0.2c0.2-0.5,0.4-1,0.4-1.6c-0.1-0.8-0.3-1.6-0.7-2.3L99.5,241.6z"/>
	<path class="st22" d="M96.4,204.9l1,16.8l1.2,20.3h5.4c0,0,0-17.1-0.3-20.1s1.4-11.5,1.7-13.1c0.4-1.9,0.1-3.8-1-5.4
		C103.8,202.2,96.4,204.9,96.4,204.9z"/>
	<path class="st23" d="M115.1,240.3l-4,1.7c-0.3,0.9-0.7,1.7-1.3,2.4c-0.7,0.5-3,0.9-3.5,1.8c-0.1,0.2,0.1,0.8,0.1,0.8
		c1.5,0,3-0.2,4.5-0.5c1.1-0.5,2.1-1.1,3.1-1.7l0.2,0.3l2.5-1.2c0-0.5,0-1.1-0.2-1.6C116.2,241.4,115.7,240.8,115.1,240.3z"/>
	<path class="st20" d="M103.5,189.1c-0.5-2.3-2.4-4.3-2.7-3.8s-3.2,1-4.2,0.8c0,0-2.2,2.9-2,5.8c0.2,2.6,0.6,5.2,1.1,7.8
		c0.5,3.1,1.3,8.7,1.3,8.7l8.8-2c0,0-1-3-1.7-4.4S104,191.4,103.5,189.1z"/>
	<path class="st24" d="M106.7,209.4c-0.1-2.8-1.6-5.1-2.4-6.4c-2.7,0.5-5.4,0.8-8.1,1l0.6,4.3l4.6,16.4l9.4,17.6l4.9-1.8
		c0,0-6-13.6-7.9-17.1C106.3,220.8,106.8,211.1,106.7,209.4z"/>
	<path class="st25" d="M99.9,208.5c-0.6-0.5-1-1.3-1-2.1l-0.7,0.2c0.1,1,0.5,1.9,1.2,2.5c0.8,0.6,1.8,0.8,2.7,0.4l-0.1-0.7
		C101.3,209,100.5,208.9,99.9,208.5z"/>
	<path class="st18" d="M100.4,203.6c-2.2,0.3-4.2,0.4-4.2,0.4l0.3,1.7c0,0,3.2-0.3,4.3-0.5s4.3-0.9,4.3-0.9l-0.8-1.4
		C104.3,203,101.4,203.5,100.4,203.6z"/>
	<polygon class="st25" points="96.2,204 96.4,205.7 97.5,205.6 97.3,203.9 	"/>
	
		<rect x="103.4" y="203.1" transform="matrix(0.9868 -0.1618 0.1618 0.9868 -31.6422 19.4433)" class="st25" width="0.3" height="1.8"/>
	
		<rect x="98.3" y="203.7" transform="matrix(0.9927 -0.121 0.121 0.9927 -24.0331 13.4146)" class="st25" width="0.3" height="1.8"/>
	<polygon class="st20" points="95.7,185.8 95.7,187.3 100.7,184.9 99.8,183.8 	"/>
	<polygon class="st26" points="96,187.6 97,185.2 95.7,185.8 	"/>
	<path class="st19" d="M100,181.6c0.1-0.8-4.1,0.1-4.2,0.4s0.5,3.4,0,4.5c0,0,0,0.6,0.8,0.5c1.3-0.4,2.6-1.1,3.7-1.9
		C99.9,184,99.8,182.8,100,181.6z"/>
	
		<linearGradient id="SVGID_9_" gradientUnits="userSpaceOnUse" x1="100.0283" y1="480.7794" x2="97.7583" y2="487.2094" gradientTransform="matrix(1 0 0 1 0 -298)">
		<stop  offset="0" style="stop-color:#B5BFBF"/>
		<stop  offset="1" style="stop-color:#FFFFFF"/>
	</linearGradient>
	<polygon class="st27" points="96.4,186.9 95.3,188.9 101.6,185.6 101,185.2 	"/>
	<polygon class="st20" points="95.9,186.9 97.2,186.9 96.4,186.1 	"/>
	<path class="st28" d="M95.7,186.5l-0.4,1.2l0.5,0.3l0.8-0.6c0-0.2-0.1-0.4-0.2-0.6C96.2,186.6,96,186.6,95.7,186.5z"/>
	<polygon class="st29" points="96.4,186.1 96.4,187.6 101.3,185.2 100.5,184.1 	"/>
	<path class="st30" d="M95.8,188l-0.5-0.3c-0.5,1.1-0.8,2.3-0.8,3.5c-0.1,2.6,1.4,14.8,1.4,14.8l0.7-1.6c0,0-1.2-8.9-1.4-11.5
		C95.1,191.3,95.4,189.6,95.8,188z"/>
	<path class="st31" d="M97.5,174.6c-0.8,0.5-1.3,1.2-1.5,2.1c-0.8,1.3-1.4,2.1-1.4,2.1l0.5,0.4c0,0-0.4,1-0.7,1.8
		c-0.2,0.4,0.9,0.9,1.9,1.5c0.9,0.4,1.9,0.6,2.9,0.4c1-0.4,1.9-1.2,2.5-2.1c1.3-1.9,1.3-3.3,1.1-3.8
		C102.1,174.3,98.8,173.6,97.5,174.6z"/>
	<path class="st18" d="M102.2,174.2c-1.7-0.7-3.7-0.9-4.5-0.2c-0.2,0.3-0.4,0.5-0.5,0.9c0.5,0.7,1,1.5,1.3,2.3
		c0,0.7-0.2,1.5-0.4,2.1l0.4,0.2c0,0,0.3-1.4,1.2-1.3c1.3,0.1,0.1,2,0.1,2l-0.3,1.9c0,0,0.4,1.6,0.8,1c0.8-1.1,2.6-1.9,3.2-3.3
		C103.9,178.5,104.3,175.1,102.2,174.2z"/>
	<path class="st31" d="M83.8,171.3c-0.4,0-0.8,1.1-1.2,1.9c-0.6,1.2-1.2,1.4-1.3,2.2s0.4,1.3,1,1c0.7-0.4,1.2-1.1,1.3-1.9
		C83.9,173.5,84.2,171.3,83.8,171.3z"/>
	<path class="st19" d="M74.1,152.7c-4.1,1.5-13,4.2-13.1,7.1c0,0,0.3,1.7,1.6,2.1c2.4,0.7,12.3-5.8,12.9-6.8S75.6,152.1,74.1,152.7z
		"/>
	<path class="st32" d="M64,156.3c-0.6,0.4-4.2,2.5-3.1,4.7c0.8,1.6,2.5,1.7,5.5,0.1c1.8-0.9,6.7-3.6,6.7-3.9
		c-0.2-1.4-0.9-2.7-1.8-3.8C71,153.1,66.2,155.1,64,156.3z"/>
	<path class="st19" d="M80.7,144.6c-2.6,2.7-7.6,7.7-7.5,9.9c0,0,0.4,1.4,1.4,1.3c1.8-0.2,7.5-9.3,7.8-10.4S81.6,143.6,80.7,144.6z"
		/>
	<path d="M67.1,205c-0.7-0.7-1.3-1.5-1.7-2.4l-4.4-1.4c-0.6,0.6-1,1.4-1.3,2.2c-0.1,0.6-0.1,1.2,0,1.7l2.8,1l0.2-0.3
		c1.1,0.6,2.3,1.1,3.5,1.5c1.2,0.2,4.5-1.5,4.5-1.5s0.1-0.7,0-0.9C70.1,204.2,67.9,205.4,67.1,205z"/>
	<path class="st33" d="M57.2,175.9c0,0-5.9,1.4-6.9,2.3s0.8,2.6,2,3.4c1.4,0.9,12.5,3.8,12.1,4.9c-1.1,3-3.9,15.1-3.9,15.1l5.4,1.4
		c0,0,6.5-17.2,5.6-20.4C71,180.8,57.2,175.9,57.2,175.9z"/>
	<path d="M58.6,217.3c-0.5-0.8-0.8-1.6-1-2.6l-3.8-2.3c-0.7,0.5-1.2,1-1.7,1.7c-0.2,0.5-0.3,1.1-0.4,1.6l2.3,1.5l0.3-0.2
		c0,0,2.1,1.6,2.9,2.1c1,0.6,3.7,2.4,4.4,2.1c0.2-0.1,0.3-0.6,0.2-0.8C61.3,219.6,59.2,217.9,58.6,217.3z"/>
	<path class="st32" d="M63,154.5c-0.1-0.5-3.2,1.5-4.3,3.6c-1.5,3-2.6,5.4-3.4,6.8c-1.4,2.5-3.1,4.8-5,6.8l7.5,4.9
		c1-2.3,2.2-4.6,3.5-6.8c1.8-2.9,4.1-4.3,5.2-6.7c1.3-2.8,0.3-6.3,0.3-6.3C65.7,156.7,63.1,155,63,154.5z"/>
	<path class="st33" d="M57.8,176.7l-7.4-5c-1.8,1.8-2.6,4.5-2,7c0.3,1.6,3,11.5,2.8,14.6s0.9,20.5,0.9,20.5l5.7,1l-0.2-22
		L57.8,176.7z"/>
	<path class="st18" d="M51.1,170.7l-0.8,1.1c0,0,2.8,2,3.7,2.7s3.8,2.3,3.8,2.3l0.8-1.6c0,0-1.8-1-3.7-2.1L51.1,170.7z"/>
	<polygon class="st25" points="56.9,176.3 57.9,176.8 58.6,175.2 57.8,174.8 	"/>
	
		<rect x="51" y="172" transform="matrix(0.5582 -0.8297 0.8297 0.5582 -119.8492 119.1437)" class="st25" width="1.9" height="0.3"/>
	
		<rect x="55.5" y="174.8" transform="matrix(0.5252 -0.851 0.851 0.5252 -122.0797 131.0614)" class="st25" width="1.9" height="0.3"/>
	<polygon class="st34" points="62.8,154.4 67.3,157.8 67.7,156.4 63.8,153.4 	"/>
	<polygon class="st35" points="67,158.1 67.7,156.4 66.4,155.4 	"/>
	<path class="st19" d="M64.2,150.4c-0.2,1.6-0.8,3-1.7,4.3c0.6,0.6,1.3,1.1,2,1.4c0.7,0.2,1.5,0.4,2.3,0.4c-0.1-1.3,1.3-4.1,1.4-4.4
		S64.3,149.6,64.2,150.4z"/>
	
		<linearGradient id="SVGID_10_" gradientUnits="userSpaceOnUse" x1="65.4664" y1="452.5182" x2="64.1964" y2="456.1082" gradientTransform="matrix(1 0 0 1 0 -298)">
		<stop  offset="0" style="stop-color:#B5BFBF"/>
		<stop  offset="1" style="stop-color:#FFFFFF"/>
	</linearGradient>
	<polygon class="st36" points="62.3,154.6 61.7,155 67.3,159.5 66.7,157.3 	"/>
	<polygon class="st34" points="65.9,157.2 67.2,157.4 66.9,156.5 	"/>
	<path class="st28" d="M66.7,157.2c-0.2,0.1-0.3,0.3-0.3,0.5l0.7,0.8l0.6-0.2l-0.1-1.3C67.2,157,66.9,157.1,66.7,157.2z"/>
	<polygon class="st37" points="62,154.6 66.6,158 66.9,156.5 63.1,153.6 	"/>
	<path class="st38" d="M67.6,158.3l-0.6,0.2c0,0,0.2,2.3,0.5,4.9c0.5,4.3,0.6,8.6,0.4,12.9l1.4,2.3c0.2-5.5-0.2-11.1-1.2-16.5
		C67.8,160.1,67.6,158.3,67.6,158.3z"/>
	<path class="st31" d="M68.8,147.6c0.1-0.9-0.3-1.9-0.9-2.5c-1-1.3-4.5-1.4-5.9,1.1c-0.3,0.5-0.7,1.9,0.2,4.1c0.4,1.1,1.1,2,2,2.6
		c0.9,0.4,2,0.5,3,0.3c1.1-0.3,2.3-0.5,2.3-1c-0.1-0.9-0.3-2-0.3-2l0.6-0.2C69.8,150,69.3,149.1,68.8,147.6z"/>
	<path class="st39" d="M63.3,143.6c-2.4,0.4-2.8,3.9-2.6,5.3c0.3,1.6,1.9,2.8,2.4,4.1c0.3,0.7,1-0.8,1-0.8l0.1-2c0,0-0.8-2.1,0.5-2
		c0.9,0.1,0.9,1.6,0.9,1.6l0.4-0.1c-0.1-0.8,0-1.5,0.1-2.3c0.6-0.7,1.2-1.4,1.9-1.9c0-0.3-0.1-0.7-0.3-1
		C67.3,143.6,65.2,143.2,63.3,143.6z"/>
	<path class="st40" d="M54,178.8c-0.7,0.2-1.5,0.1-2.1-0.4l-0.3,0.7c0.8,0.6,1.8,0.8,2.7,0.4c0.9-0.4,1.6-1.2,1.9-2.1l-0.7-0.4
		C55.3,177.8,54.7,178.5,54,178.8z"/>
	<path class="st31" d="M62.8,157.7c0,0-1.7,0.1-2.2,1.4c-0.9,2.4,4.6,12.8,5.6,13.4s2.9,0.4,2.4-1.1
		C67.5,167.2,65.7,158.1,62.8,157.7z"/>
	<path class="st35" d="M61.7,157.6c-1.6,0.7-1.9,2.4-0.7,5.5c0.8,1.9,2.9,7,3.3,7c1.4-0.1,2.8-0.6,3.9-1.4c0.3-0.3-1.2-5.3-2.1-7.6
		C65.8,160.4,64,156.6,61.7,157.6z"/>
	<path class="st31" d="M78.7,177.3c-3.1-2.4-8.9-6.9-11.2-6.5c0,0-1.4,0.6-1.2,1.6c0.4,1.8,10.6,6.5,11.8,6.7S79.8,178.2,78.7,177.3
		z"/>
	<path class="st39" d="M87.3,160.1L87.3,160.1c-0.5-0.2-1.1,0-1.3,0.5l0,0l-35.8,84.3c-0.2,0.5,0.1,1.1,0.6,1.3l0,0l0,0
		c0.5,0.2,1.1,0,1.3-0.5l0,0l35.8-84.3C88,160.8,87.8,160.3,87.3,160.1z"/>
	<path class="st19" d="M82,142.5c-0.8,0.6-1.2,1.5-1.2,2.5c0,0.8,0.9,1,1.7,0.5s0.4-1.4,1.3-2.8c0.6-0.9,2-1.7,1.7-2.1
		S83,141.6,82,142.5z"/>
	<path class="st19" d="M83.1,143.9c-0.6,0.6-0.9,1.3-0.8,1.4s0.7-0.3,1.3-0.9s0.9-1.3,0.7-1.4S83.6,143.2,83.1,143.9z"/>
	<polygon class="st41" points="92,134.9 90.1,130.9 88.1,134.9 83.7,135.5 86.9,138.6 86.2,143 90.1,140.9 94,143 93.2,138.6 
		96.4,135.5 	"/>
	<polygon class="st42" points="83.7,135.5 86.9,138.6 86.2,143 90.1,140.9 90.1,130.9 88.1,134.9 	"/>
	<polygon class="st3" points="91.9,135 90.1,131.2 90.1,131.2 91.6,135.6 95.7,135.9 92.7,138.4 93.1,141.9 90.1,140.8 93.8,142.7 
		93.1,138.6 96.1,135.6 	"/>
	<path class="st31" d="M94.3,185.6c-2.4-0.9-6.3-3.8-7.2-2s3.3,3.6,7.3,5.4s5.4,2.3,5.9,0.1C100.7,187.3,96.7,186.4,94.3,185.6z"/>
	<path class="st31" d="M87,180.2c-1.7-1.9-4.2-4.7-4.2-4.7l-1,0.8c0,0,1.5,3,2.6,4.9c1.2,2,2.3,3.6,3.4,4.2c1.7,0.9,2.5-0.7,2.3-1.3
		C89.9,183.3,88.7,182.1,87,180.2z"/>
	<path class="st26" d="M98.8,186.4c-1.7-0.8-6.4-2.9-6.6-2.7c-0.9,1-1.5,2.1-1.8,3.4c-0.1,0.4,4.1,2.9,6.2,3.8
		c0.6,0.3,4.2,1.7,5.2-0.4C102.4,189.1,101.6,187.7,98.8,186.4z"/>
	<polygon class="st17" points="723.7,139.1 723.2,137.9 722.6,139.1 721.4,139.2 722.3,140.1 722.1,141.3 723.2,140.7 724.2,141.3 
		724,140.1 724.9,139.2 	"/>
	<polygon class="st17" points="902.4,185.4 901.6,183.8 900.8,185.4 898.9,185.7 900.2,187 899.9,188.9 901.6,188 903.3,188.9 
		902.9,187 904.3,185.7 	"/>
	<polygon class="st17" points="878.6,144.9 877.7,143.2 876.9,144.9 875,145.1 876.4,146.4 876.1,148.3 877.7,147.4 879.4,148.3 
		879.1,146.4 880.4,145.1 	"/>
	<ellipse class="st3" cx="830" cy="243.5" rx="51.6" ry="10.5"/>
	<polygon class="st17" points="794.9,144.9 794.1,143.2 793.3,144.9 791.4,145.1 792.8,146.4 792.4,148.3 794.1,147.4 795.8,148.3 
		795.4,146.4 796.8,145.1 	"/>
	
		<rect x="804.2" y="168.9" transform="matrix(0.9884 -0.1521 0.1521 0.9884 -16.4503 124.8894)" class="st20" width="7.8" height="2.1"/>
	<g>
		<g>
			<defs>
				<path id="SVGID_11_" d="M810.5,157c-1.2-1.2-3-1.8-4.7-1.6c-1.9,0.3-3.4,1.6-4.1,3.4c-0.2,1.3-0.1,2.7,0.3,4l0.6,0.5
					c0.5,1.6,1.4,3,2.8,4.1c0,2.6-0.8,3.2-0.8,3.2s1,8.6,4.9,8.1c3.7-0.4,2.1-9.2,2.1-9.2s-0.8-0.2-1.4-3.2c0.9-1.4,1.3-3.1,1.3-4.7
					v-0.1l0.3-0.6C811.7,160.9,811.4,158.1,810.5,157z"/>
			</defs>
			<clipPath id="SVGID_12_">
				<use xlink:href="#SVGID_11_"  style="overflow:visible;"/>
			</clipPath>
			<g class="st43">
				<path class="st19" d="M809.9,164.9c-0.1-1.1-4.8-0.5-4.6,0.6c0.5,4-0.7,5-0.7,5s1,8.6,4.9,8.1c3.7-0.4,2.1-9.2,2.1-9.2
					S810.5,169.2,809.9,164.9z"/>
				
					<linearGradient id="SVGID_13_" gradientUnits="userSpaceOnUse" x1="803.5641" y1="470.4247" x2="810.2939" y2="464.5547" gradientTransform="matrix(1 0 0 1 0 -298)">
					<stop  offset="0.33" style="stop-color:#FFFFFF"/>
					<stop  offset="0.46" style="stop-color:#FDFBFB"/>
					<stop  offset="0.59" style="stop-color:#F6EEEE"/>
					<stop  offset="0.73" style="stop-color:#EBD9DA"/>
					<stop  offset="0.87" style="stop-color:#DBBCBD"/>
					<stop  offset="1" style="stop-color:#C99A9C"/>
				</linearGradient>
				<polygon class="st44" points="802.2,171.7 806.1,173.6 810.2,166.4 805.9,167 				"/>
				<path class="st45" d="M806.1,156.5c-2.5,0.4-4.4,3.3-3.5,6.4c0.9,3.3,3.7,5.6,5.4,5.3s3.7-3.3,3.5-6.7S808.5,156.1,806.1,156.5z
					"/>
				
					<linearGradient id="SVGID_14_" gradientUnits="userSpaceOnUse" x1="826.7375" y1="456.9998" x2="825.6674" y2="459.9898" gradientTransform="matrix(1 0 0 1 -18 -298)">
					<stop  offset="0" style="stop-color:#EAC2C7"/>
					<stop  offset="0.22" style="stop-color:#F2D9DC"/>
					<stop  offset="0.49" style="stop-color:#F9EEEF"/>
					<stop  offset="0.75" style="stop-color:#FEFBFB"/>
					<stop  offset="1" style="stop-color:#FFFFFF"/>
				</linearGradient>
				<path class="st46" d="M804.7,159.1c0.8,0.2,1.7,0.4,2.5,0.6c0.8,0,1.6,0.2,2.4,0.4c1.3,0.4,1.6,3.2,1.6,3.2s0.1-3.3-0.9-4.2
					S804.7,159.1,804.7,159.1z"/>
				<path class="st18" d="M805.8,155.4c-1.9,0.3-3.4,1.6-4.1,3.4c-0.2,1.3-0.1,2.7,0.3,4l0.7,0.6c0,0,0-2.8,0.6-3.3
					c0.2-0.1,1.3-1,1.3-1s4.7,0.2,5.2,0.6c0.6,0.7,1,1.5,1.3,2.3l0.5-1.1c0,0-0.2-2.8-1.2-3.9C809.2,155.8,807.5,155.2,805.8,155.4z
					"/>
				
					<rect x="798.8" y="152.2" transform="matrix(0.9884 -0.1521 0.1521 0.9884 -15.8764 124.0868)" class="st47" width="8.7" height="27.2"/>
			</g>
		</g>
	</g>
	<path class="st20" d="M804.6,170.5l-4.9,2.4c0,0,4.7,11.4,5.5,14.1c0.3,1,0.3,9.9-0.3,10.6l6.7-1l-3.2-24.4
		C807.1,171.9,805.8,171.3,804.6,170.5z"/>
	<path class="st20" d="M805,197.6L805,197.6C804.9,197.6,804.9,197.6,805,197.6z"/>
	<path class="st26" d="M817.1,170.1l-5.5-0.6c-0.5,1.5-3.1,2.7-3.1,2.7l4.1,26.8l7.3-1.1c-0.3-1.7-0.3-11.8-0.3-12.9
		C819.5,182.2,817.1,170.1,817.1,170.1z"/>
	<path d="M802.6,242.8c-0.6,0.5-0.9,1.3-0.8,2.1c0,0,3,0.8,4.3,0c1-0.6,2.1-1.1,3.1-1.5v-2.6l-3.6-0.3
		C804.6,241.2,803.6,242,802.6,242.8z"/>
	<path d="M817.5,240.5l-3.6,0.3v2.6c1.1,0.4,2.1,1,3.1,1.5c1.3,0.8,4.3,0,4.3,0c0.1-0.8-0.2-1.6-0.8-2.1
		C819.5,242,818.5,241.2,817.5,240.5z"/>
	<polygon class="st38" points="812.2,194.1 812.2,204.3 812.5,204.3 813.7,241.2 818.6,241.2 820.1,201.1 819.6,194 	"/>
	<path class="st25" d="M817.8,196.2c0.1,0.8,0.3,1.6,0.6,2.3c0.4,0.6,0.9,1.1,1.6,1.4l-0.2-2.3L817.8,196.2z"/>
	<polygon class="st30" points="812.2,194.1 813.7,241.2 816.7,241.2 816.2,194 	"/>
	<polygon points="804.8,201.1 804.5,241.2 809.4,241.2 812,204.3 812.2,204.3 812.2,194.1 805.4,194 	"/>
	<path class="st30" d="M804.9,199.9c0.6-0.3,1.2-0.8,1.6-1.4c0.3-0.7,0.6-1.5,0.6-2.3l-2,1.4L804.9,199.9z"/>
	<polygon class="st30" points="806.5,241.2 809.4,241.2 812,204.3 812.2,194.1 808.5,194.1 	"/>
	<polygon class="st30" points="812,204.3 812.5,204.3 812.8,194.1 811.6,194.1 	"/>
	<polygon class="st18" points="805.4,194 805.2,195.8 819.7,195.8 819.6,194 	"/>
	<rect x="810.7" y="194" class="st25" width="3.3" height="1.8"/>
	<polygon class="st20" points="807.7,171.5 807,171.9 808.4,172.2 808,171.6 	"/>
	<polygon class="st20" points="808.6,171.5 808.4,172.2 809.7,171.5 808.9,171.3 	"/>
	<polygon class="st38" points="808.7,174.1 811.9,195 813.4,192.8 809.2,174 	"/>
	<polygon points="808.2,174.2 809.8,193.3 811.9,195 808.7,174.1 	"/>
	
		<linearGradient id="SVGID_15_" gradientUnits="userSpaceOnUse" x1="812.411" y1="467.4936" x2="809.591" y2="471.4436" gradientTransform="matrix(1 0 0 1 0 -298)">
		<stop  offset="0" style="stop-color:#B5BFBF"/>
		<stop  offset="1" style="stop-color:#FFFFFF"/>
	</linearGradient>
	<polygon class="st48" points="808.6,173.1 808.9,175 813.5,169.7 811.8,169.6 	"/>
	<polygon class="st28" points="808.7,174.1 809.2,174 809.7,171.6 808.4,172.2 	"/>
	
		<linearGradient id="SVGID_16_" gradientUnits="userSpaceOnUse" x1="806.5121" y1="470.093" x2="805.7621" y2="471.143" gradientTransform="matrix(1 0 0 1 0 -298)">
		<stop  offset="0" style="stop-color:#B5BFBF"/>
		<stop  offset="1" style="stop-color:#FFFFFF"/>
	</linearGradient>
	<polygon class="st49" points="804.1,170.8 802.7,171.5 808.6,175.1 808.3,173.2 	"/>
	<polygon class="st50" points="807,172 808.2,174.2 808.7,174.1 808.4,172.2 	"/>
	<polygon class="st26" points="803.1,171.3 807.3,173.4 808,171.6 804.1,169.5 	"/>
	<polygon class="st29" points="808.6,171.5 809.9,172.9 813.2,169.7 811.8,168.3 	"/>
	
		<linearGradient id="SVGID_17_" gradientUnits="userSpaceOnUse" x1="828.6514" y1="470.2355" x2="828.1913" y2="472.0655" gradientTransform="matrix(1 0 0 1 -18 -298)">
		<stop  offset="0" style="stop-color:#241F1A"/>
		<stop  offset="1" style="stop-color:#FFFFFF"/>
	</linearGradient>
	<path class="st51" d="M808.8,171.6l1.2,1.3l3.3-3.2c0,0-2.9,2.5-3.2,2.4C809.6,172,809.1,171.8,808.8,171.6z"/>
	
		<linearGradient id="SVGID_18_" gradientUnits="userSpaceOnUse" x1="823.3502" y1="470.4377" x2="823.1301" y2="471.3077" gradientTransform="matrix(1 0 0 1 -18 -298)">
		<stop  offset="0" style="stop-color:#241F1A"/>
		<stop  offset="1" style="stop-color:#FFFFFF"/>
	</linearGradient>
	<path class="st52" d="M807.1,173c-0.2,0.1-4-1.7-4-1.7l4.2,2.1l0.8-1.8C807.7,172.1,807.4,172.5,807.1,173z"/>
	<path class="st19" d="M802.1,173.3c-3-1.1-3.7,0.7-5,6.1s-3,11-0.1,11.5s2.9-5.8,4-8.9S804.5,174.2,802.1,173.3z"/>
	<path class="st31" d="M815.4,171.5c-1.8,1.9,2.5,5.1,4.8,7.4s5,7.9,7.4,6.3s-1.5-6-5-10.3S817.7,169.1,815.4,171.5z"/>
	<path class="st20" d="M800.6,172.5c-3-0.2-6.2,14.1-6.2,14.1l5.4,0.9l1.8-5.2C801.6,182.3,807.8,173,800.6,172.5z"/>
	<path class="st26" d="M816.4,170.1c-4.8,3,3.1,9.3,3.1,9.3l3.8,4l4.6-3C827.9,180.4,819.2,168.4,816.4,170.1z"/>
	<path class="st19" d="M798,178l-1.7-0.1c0,0-0.5,4.1-0.8,6.8s-0.9,3.9,0.1,5.4c0.4,0.6,2,1.8,3.3-0.3c0.8-1.3,0.7-3.3,0.3-5.9
		C798.8,181.6,798,178,798,178z"/>
	<path class="st19" d="M796.8,175.8c-0.6,0.7-0.8,1.7-0.6,2.6c0.1,0.5,0.7,0.9,1.2,0.8c0.1,0,0.2,0,0.2-0.1c0.6-0.4,0.7-0.5,1.2-1.5
		c0.3-0.7,1-1.5,0.7-1.9C798.6,175.1,797.6,175.2,796.8,175.8z"/>
	<path class="st53" d="M797.3,177.7c0,0,3.4,3.4,4.1,4.4c0.5,1,0.9,2,1.1,3.1c0.1,0.5,0.4,1,0.8,1.4l7.4,7.5c0.4,0.5,1.2,0.5,1.6,0
		l0,0l1.4-1.4L798,177L797.3,177.7z"/>
	<path class="st54" d="M807.6,182.2c-0.4-0.4-0.8-0.6-1.3-0.8c-1.1-0.2-2.1-0.6-3.1-1.1c-1-0.7-4.4-4.1-4.4-4.1l-0.7,0.7l15.7,15.7
		l1.4-1.4c0.5-0.5,0.5-1.2,0-1.6L807.6,182.2z"/>
	<path class="st54" d="M796.9,177.2l1.4-1.4c0.2-0.2,0.4-0.2,0.6,0l0.5,0.5c0.2,0.2,0.2,0.4,0,0.6l-1.4,1.4c-0.2,0.2-0.4,0.2-0.6,0
		l-0.5-0.5C796.7,177.6,796.7,177.4,796.9,177.2z"/>
	
		<linearGradient id="SVGID_19_" gradientUnits="userSpaceOnUse" x1="826.1059" y1="486.4037" x2="831.9459" y2="479.6337" gradientTransform="matrix(1 0 0 1 -18 -298)">
		<stop  offset="0" style="stop-color:#000000"/>
		<stop  offset="0.23" style="stop-color:#373737"/>
		<stop  offset="0.76" style="stop-color:#C0C0C0"/>
		<stop  offset="1" style="stop-color:#FFFFFF"/>
	</linearGradient>
	<path class="st55" d="M806.3,181.8c-0.2-0.2-0.4-0.2-0.6,0c-0.2,0.2-0.2,0.4,0,0.6l0,0l8.1,8.1c0.2,0.2,0.4,0.2,0.6,0
		c0.2-0.2,0.2-0.4,0-0.6l0,0L806.3,181.8z"/>
	<path class="st31" d="M827,182c-2.3,0.2-3.5,0.7-6.8,1.8s-8.5,2.7-8.5,2.7l0.5,1.7c0,0,4.8-0.2,7.9-0.5c3.3-0.4,6-0.9,7.4-2
		C829.8,183.8,827,182,827,182z"/>
	<path class="st31" d="M812,186.1c-1,0.1-2.7-0.1-3.6,1.2s-2.1,2.8-1.3,3.6c0.4,0.4,1.3-0.1,2.4-1c1.5-1.2,2.7-0.8,3.2-1.9
		S813,186.1,812,186.1z"/>
	<path class="st56" d="M796.1,174.5c-0.9,0.2-3.4,0.3-3.8,1.2s-1.6,3.8-2,3.8s0.2,1.5,0.7,1.5s2.5-0.6,2-1.1s0-1.7,0.2-2.3
		s1.9-0.2,2.1,0s1.5-0.4,1.5-0.4l1.4-1.4C798.3,175.8,797,174.3,796.1,174.5z"/>
	<path class="st57" d="M797.1,174.8c0.3,0.2,0.5,0.5,0.7,0.7l-1.4,1.4c0,0-1.3,0.6-1.5,0.4s-1.9-0.6-2.2,0s-0.7,1.9-0.2,2.3
		s-1.5,1.1-2,1.1c0.1,0.2,0.3,0.3,0.4,0.3c0.5,0,2.5-0.6,2-1.1s0-1.7,0.2-2.3s1.9-0.2,2.1,0s1.5-0.4,1.5-0.4l1.4-1.4
		C797.9,175.5,797.5,175.1,797.1,174.8z"/>
	<rect x="829.6" y="170.2" class="st32" width="7.9" height="2.2"/>
	<g>
		<g>
			<defs>
				<path id="SVGID_20_" d="M837.9,158.6c-1.1-1.4-2.7-2.3-4.4-2.4c-1.9,0-3.7,1.1-4.6,2.8c-0.4,1.3-0.5,2.7-0.3,4l0.5,0.6
					c0.2,1.7,1,3.3,2.2,4.5c-0.4,2.6-1.3,3.1-1.3,3.1s-0.3,8.7,3.6,8.9c3.8,0.1,3.5-8.9,3.5-8.9s-0.8-0.3-0.9-3.4
					c1.1-1.3,1.8-2.9,2-4.6v-0.1l0.4-0.5C838.5,162.7,838.7,159.9,837.9,158.6z"/>
			</defs>
			<clipPath id="SVGID_21_">
				<use xlink:href="#SVGID_20_"  style="overflow:visible;"/>
			</clipPath>
			<g class="st58">
				<path class="st19" d="M836.1,166.5c0-1.1-4.7-1.2-4.7-0.1c-0.1,4.1-1.4,4.9-1.4,4.9s-0.3,8.7,3.6,8.9c3.8,0.1,3.5-8.9,3.5-8.9
					S836,170.9,836.1,166.5z"/>
				
					<linearGradient id="SVGID_22_" gradientUnits="userSpaceOnUse" x1="829.1249" y1="471.2355" x2="835.7249" y2="465.4756" gradientTransform="matrix(1 0 0 1 0 -298)">
					<stop  offset="0.33" style="stop-color:#FFFFFF"/>
					<stop  offset="0.46" style="stop-color:#FDFBFB"/>
					<stop  offset="0.59" style="stop-color:#F6EEEE"/>
					<stop  offset="0.73" style="stop-color:#EBD9DA"/>
					<stop  offset="0.87" style="stop-color:#DBBCBD"/>
					<stop  offset="1" style="stop-color:#C99A9C"/>
				</linearGradient>
				<polygon class="st59" points="827.4,172 831,174.6 836.2,167.9 831.8,167.9 				"/>
				<path class="st45" d="M833.6,157.4c-2.5,0-4.9,2.7-4.5,5.9c0.3,3.4,2.8,6.1,4.5,6.1s4.2-2.8,4.5-6.1S836.1,157.4,833.6,157.4z"
					/>
				
					<linearGradient id="SVGID_23_" gradientUnits="userSpaceOnUse" x1="853.4918" y1="458.4584" x2="852.3018" y2="461.7984" gradientTransform="matrix(1 0 0 1 -18 -298)">
					<stop  offset="0" style="stop-color:#EAC2C7"/>
					<stop  offset="0.22" style="stop-color:#F2D9DC"/>
					<stop  offset="0.49" style="stop-color:#F9EEEF"/>
					<stop  offset="0.75" style="stop-color:#FEFBFB"/>
					<stop  offset="1" style="stop-color:#FFFFFF"/>
				</linearGradient>
				<path class="st60" d="M831.8,159.8c0.8,0.4,1.6,0.7,2.5,1c0.8,0.2,1.6,0.4,2.4,0.7c1.2,0.6,1.1,3.5,1.1,3.5s0.6-3.3-0.2-4.3
					S831.8,159.8,831.8,159.8z"/>
				<path class="st39" d="M833.5,156.3c-1.9,0-3.7,1.1-4.6,2.8c-0.4,1.3-0.5,2.7-0.3,4l0.6,0.7c0,0,0.4-2.8,1.1-3.2
					c0.2-0.1,1.5-0.8,1.5-0.8s4.7,0.9,5.1,1.4c0.5,0.8,0.8,1.6,0.9,2.5l0.7-1c0,0,0.2-2.8-0.6-4
					C836.9,157.3,835.2,156.4,833.5,156.3z"/>
				<rect x="824.8" y="152.6" class="st47" width="8.8" height="27.6"/>
			</g>
		</g>
	</g>
	<path class="st32" d="M824.7,172.9c0,0,1.3,12.2,1.8,14.9c0.2,1.1,0.2,11.4,0.1,13.1h7v-27.4c-1.3-0.5-2.6-1.2-3.5-2.2L824.7,172.9
		z"/>
	<path class="st35" d="M833.5,173.5v27.4h7.5c0-1.8,0-12,0.1-13.1c0.4-2.8,1.4-15.1,1.4-15.1l-5.5-1.4
		C836.3,172.7,833.5,173.5,833.5,173.5z"/>
	<path d="M825.7,245c-0.6,0.5-0.9,1.3-0.8,2.1c0,0,3.1,0.8,4.4,0c1-0.6,2.1-1.1,3.2-1.5V243l-3.6-0.4
		C827.7,243.4,826.7,244.2,825.7,245z"/>
	<path d="M838.8,242.7l-3.6,0.4v2.6c1.1,0.5,2.1,1,3.2,1.5c1.3,0.8,4.4,0,4.4,0c0.1-0.8-0.2-1.6-0.8-2.1
		C841,244.2,839.9,243.4,838.8,242.7z"/>
	<polygon class="st61" points="833.5,195.7 833.5,206 833.8,206 835,243.4 840,243.4 841.5,202.8 841,195.6 	"/>
	<path class="st25" d="M839.2,197.8c0.1,0.8,0.3,1.6,0.6,2.3c0.4,0.6,1,1.1,1.6,1.4l-0.2-2.3L839.2,197.8z"/>
	<polygon class="st62" points="833.5,195.7 835,243.4 838,243.4 837.5,195.6 	"/>
	<polygon class="st63" points="826,202.8 827.5,243.4 832.5,243.4 833.3,206 833.5,206 833.5,195.7 826.6,195.6 	"/>
	<path class="st30" d="M826.1,201.5c0.7-0.3,1.2-0.8,1.6-1.4c0.4-0.7,0.6-1.5,0.6-2.3l-2,1.4L826.1,201.5z"/>
	<polygon class="st64" points="829.5,243.4 832.5,243.4 833.5,195.7 829.8,195.7 	"/>
	<polygon class="st30" points="833.3,206 833.8,206 834.1,195.7 832.9,195.7 	"/>
	<polygon class="st18" points="826.6,195.6 826.4,197.4 841.1,197.4 841,195.6 	"/>
	<rect x="832" y="195.6" class="st25" width="3.3" height="1.8"/>
	<polygon class="st34" points="832.9,172.7 832.2,173 833.5,173.5 833.2,172.9 	"/>
	<polygon class="st32" points="833.8,172.9 833.5,173.5 834.9,173 834.2,172.7 	"/>
	<polygon class="st38" points="833.5,175.5 833.5,196.9 835.3,194.9 834.1,175.5 	"/>
	<polygon points="831.7,194.9 833.5,196.9 833.5,175.5 833,175.5 	"/>
	
		<linearGradient id="SVGID_24_" gradientUnits="userSpaceOnUse" x1="837.5443" y1="469.3388" x2="834.7644" y2="473.2288" gradientTransform="matrix(1 0 0 1 0 -298)">
		<stop  offset="0" style="stop-color:#B5BFBF"/>
		<stop  offset="1" style="stop-color:#FFFFFF"/>
	</linearGradient>
	<polygon class="st65" points="833.5,174.5 833.5,176.4 839,171.8 837.3,171.4 	"/>
	<polygon class="st28" points="833.5,175.5 834.1,175.5 834.9,173.1 833.5,173.5 	"/>
	
		<linearGradient id="SVGID_25_" gradientUnits="userSpaceOnUse" x1="831.3803" y1="470.9831" x2="830.6403" y2="472.0231" gradientTransform="matrix(1 0 0 1 0 -298)">
		<stop  offset="0" style="stop-color:#B5BFBF"/>
		<stop  offset="1" style="stop-color:#FFFFFF"/>
	</linearGradient>
	<polygon class="st66" points="827.9,171.9 833.2,176.4 833.2,174.5 829.5,171.4 	"/>
	<polygon class="st50" points="833,175.5 833.5,175.5 833.5,173.5 832.2,173.1 	"/>
	<polygon class="st35" points="828.4,171.8 832.2,174.5 833.2,172.9 829.6,170.2 	"/>
	<polygon class="st37" points="833.8,172.9 834.9,174.5 838.7,171.8 837.5,170.2 	"/>
	
		<linearGradient id="SVGID_26_" gradientUnits="userSpaceOnUse" x1="853.9076" y1="471.9417" x2="853.4876" y2="473.5917" gradientTransform="matrix(1 0 0 1 -18 -298)">
		<stop  offset="0" style="stop-color:#241F1A"/>
		<stop  offset="1" style="stop-color:#FFFFFF"/>
	</linearGradient>
	<path class="st67" d="M833.9,173l1,1.5l3.8-2.7c0,0-3.2,2.1-3.6,2C834.7,173.5,834.3,173.3,833.9,173z"/>
	
		<linearGradient id="SVGID_27_" gradientUnits="userSpaceOnUse" x1="848.4658" y1="471.6415" x2="848.2458" y2="472.4915" gradientTransform="matrix(1 0 0 1 -18 -298)">
		<stop  offset="0" style="stop-color:#241F1A"/>
		<stop  offset="1" style="stop-color:#FFFFFF"/>
	</linearGradient>
	<path class="st68" d="M832.1,174.1c-0.2,0-3.7-2.3-3.7-2.3l3.8,2.7l1-1.6C832.9,173.3,832.5,173.7,832.1,174.1z"/>
	<path class="st19" d="M819.4,159.8c-2.8,0.9-0.3,6.3,1.9,11.5s3.1,6.9,6,5.3c2.3-1.3-0.9-5.6-2.5-8.5S822.2,158.9,819.4,159.8z"/>
	<path class="st31" d="M847.6,160.2c-2.8-1-4,5.2-5.7,8s-5.1,7-2.8,8.4c2.8,1.7,3.8,0,6.2-5.1S850.3,161.2,847.6,160.2z"/>
	<path class="st32" d="M822.8,162.7l-5.3,1.7c0,0,5.4,13.9,8.4,13.2c7.1-1.6-0.5-9.9-0.5-9.9L822.8,162.7z"/>
	<path class="st35" d="M841.1,167.8c0,0-6.2,8.2-0.7,9.9c3.1,0.9,8.7-13,8.7-13l-5.2-1.8L841.1,167.8z"/>
	<path class="st19" d="M831.2,147.9c-1.1-1.5,1.3-1.3,0.6-2.1c-1.3-0.4-2.7,0.4-3,1.7c-0.2,0.6-0.1,1.2,0.2,1.8c0.4,1.2,1.5,2,2.8,2
		c1,0.1,1.4-0.9,0.9-1.9S831.6,148.4,831.2,147.9z"/>
	<path class="st31" d="M836.8,145.9c-0.8,0.9,1.7,0.6,0.6,2.2c-0.4,0.5-0.9,0.3-1.4,1.4s-0.1,2.1,0.9,1.9c1.2,0,2.3-0.8,2.8-2
		c0.6-1.2,0.1-2.7-1.1-3.3C837.9,145.8,837.3,145.7,836.8,145.9z"/>
	<path class="st19" d="M824.2,154.3c-2.8,2-4.9,3.7-5.6,5.4c-1.2,2.8,2.2,3,2.2,3c1.9-1.3,2.7-2.4,5.2-4.9s6.2-6.6,6.2-6.6l-1.3-1.2
		C830.9,149.9,826.8,152.4,824.2,154.3z"/>
	<path class="st31" d="M843.3,154.3c-2.4-2-6.3-4.9-6.3-4.9l-1,1.5c0,0,3,3.9,5.3,6.7s3,3.9,4.7,5.4c0,0,3.4,0.1,2.5-2.8
		C847.8,158.5,845.9,156.5,843.3,154.3z"/>
	<polygon class="st18" points="851.9,169.6 858.8,173 862.9,164.8 856.1,161.4 	"/>
	<path class="st19" d="M857.6,170.6c0.2-0.9-3.5-1.5-3.6-0.7c-0.5,3.2-1.9,3.7-1.9,3.7s-0.5,3.4,2.5,4s3.6-3.1,3.6-3.1
		S857,174,857.6,170.6z"/>
	
		<linearGradient id="SVGID_28_" gradientUnits="userSpaceOnUse" x1="869.411" y1="472.7227" x2="874.391" y2="468.3926" gradientTransform="matrix(1 0 0 1 -18 -298)">
		<stop  offset="0.33" style="stop-color:#FFFFFF"/>
		<stop  offset="0.46" style="stop-color:#FDFBFB"/>
		<stop  offset="0.59" style="stop-color:#F6EEEE"/>
		<stop  offset="0.73" style="stop-color:#EBD9DA"/>
		<stop  offset="0.87" style="stop-color:#DBBCBD"/>
		<stop  offset="1" style="stop-color:#C99A9C"/>
	</linearGradient>
	<path class="st69" d="M853.1,172.6c-0.7,0.9-1,1-1,1l0.1,2.5l5.3-4.5l-3.5-1.3C853.9,171.1,853.6,171.9,853.1,172.6z"/>
	<path class="st45" d="M860.1,161.5c-2.1-1.1-5.3,0.2-6.3,3.1c-1.2,3.1-0.2,6.4,1.3,7.1s4.7-0.6,6.5-3.3S862.3,162.5,860.1,161.5z"
		/>
	
		<linearGradient id="SVGID_29_" gradientUnits="userSpaceOnUse" x1="876.7009" y1="469.0205" x2="876.6909" y2="469.0405" gradientTransform="matrix(1 0 0 1 -18 -298)">
		<stop  offset="0" style="stop-color:#EAC2C7"/>
		<stop  offset="0.22" style="stop-color:#F2D9DC"/>
		<stop  offset="0.49" style="stop-color:#F9EEEF"/>
		<stop  offset="0.75" style="stop-color:#FEFBFB"/>
		<stop  offset="1" style="stop-color:#FFFFFF"/>
	</linearGradient>
	<path class="st70" d="M858.7,171L858.7,171C858.7,171,858.7,171.1,858.7,171z"/>
	
		<linearGradient id="SVGID_30_" gradientUnits="userSpaceOnUse" x1="877.9443" y1="462.8444" x2="875.8143" y2="468.8044" gradientTransform="matrix(1 0 0 1 -18 -298)">
		<stop  offset="0" style="stop-color:#EAC2C7"/>
		<stop  offset="0.22" style="stop-color:#F2D9DC"/>
		<stop  offset="0.49" style="stop-color:#F9EEEF"/>
		<stop  offset="0.75" style="stop-color:#FEFBFB"/>
		<stop  offset="1" style="stop-color:#FFFFFF"/>
	</linearGradient>
	<path class="st71" d="M858.1,163.1c0,0-0.1,2.2,1.1,3.2c2.2,1.9-0.2,4.6-0.5,4.7c0.5-0.3,1-0.6,1.4-1c0.3-0.4,1.7-2.3,1.4-3.5
		C860.6,162.9,858.1,163.1,858.1,163.1z"/>
	<path class="st39" d="M861.4,161.5c-0.5-0.2-1.1-0.3-1.7-0.2c-0.8-1.1-2.3-1.3-3.4-0.6c-4.5,2.3-4.8,8.9-4.8,8.9l1.4,1
		c0,0,0.7-4.7,1.9-6.1c0.8-0.9,2-1.5,3.3-1.5c0.2,0.9,0.6,1.7,1.1,2.4c0.9,1.3,1.4,0.8,1.6,2.2s-3,5.4-3,5.4l3.8,1.8
		c0,0,2.4-4.1,1.8-10.9C863.1,162.9,862.4,162,861.4,161.5z"/>
	<path class="st19" d="M846.1,220.3c-0.6,2.4-0.7,4.9-0.3,7.4c0.3,2.5,1.4,6.7,1.5,10c0,2.2-0.6,4.4-1.8,6.3
		c-0.2,0.4-0.9,1.3-0.1,1.4c1,0.1,2.3-1.4,3-2c2-1.8,0.5-1.5,1.1-5.9c0.7-3.5,1.2-7.1,1.4-10.6c0.3-5.6-0.8-7.3-0.8-7.3
		C848.7,217.4,846.7,218.4,846.1,220.3z"/>
	<path class="st19" d="M847.7,197.7c-2.1-0.3-4.8,0.5-4.6,5.1s2.1,13.2,3,17.4c0.1,1,0.8,1.8,1.8,2c0.8,0,1.8,0,2.1-1.1
		c0.8-2.8,0.2-16.4,0.2-16.4S849.8,198,847.7,197.7z"/>
	<path class="st31" d="M858.5,237.2c-0.6-3.2,0.3-7.6,0.1-10.1c-0.3-2.5-1.1-5-2.4-7.2c-1-1.8-3.1-2.3-4,0c0,0-0.3,1.8,1.1,7.2
		c1.5,6.1,2.2,7.7,3,10.3c0.5,2,0.9,4.1,1.1,6.2c0.2,1,0.9,1.9,1.8,1.5c0.8-0.3,1.2-1,1.1-1.8C859.6,241.3,858.9,239.3,858.5,237.2z
		"/>
	<path class="st31" d="M851.4,197.8c-2.1,0.5-1.5,7.3-1.5,7.3s1.3,13.6,2.5,16.2c0.5,1,1.5,0.9,2.3,0.8c0.9-0.3,1.5-1.2,1.5-2.2
		c0.2-4.3,0.9-13,0.5-17.7S853.4,197.2,851.4,197.8z"/>
	<path class="st19" d="M848.8,175.5c-2.4-0.9-2.9,0.5-4,4.8s-2.4,8.8-0.1,9.1s2.3-4.6,3.2-7.1S850.8,176.2,848.8,175.5z"/>
	<path d="M859.1,244.8c-1.2,0.2-1.8-1.5-1.8-1.5s0.5,3.4,2,3.4s1.5-2.4,0.8-4.3C860,242.3,860.4,244.6,859.1,244.8z"/>
	<path class="st19" d="M859.7,177.6c-1.8,1.1,0.8,4.4,2.1,6.7s2.2,7.1,4.4,6.4s0.1-4.9-1.7-9S861.9,176.3,859.7,177.6z"/>
	<path d="M849.4,240.6c-0.4,0.4-0.7,0.8-1,1.2c-0.5,0.7-1.3,2.4-1.9,2.8c-0.5,0.2-1,0.3-1.5,0.1c0,0-1.8,1-1.7,1.2
		c0.3,0.5,2.9,0.3,3.4,0.1c0.2-0.1,0.7-1,1.2-1.6s0.9-0.9,1.2-0.8s0.5,2.2,0.5,2.2h0.4v-0.2c0-1.1,0-2.3,0.2-3.4
		C850.2,241.6,849.9,241,849.4,240.6z"/>
	<path class="st72" d="M852.1,173.6c0,0-5.3,0.4-4.9,1.8c1,3.9,1,13.3,0.6,16.2c0,0.2-0.1,0.3-0.1,0.5c-0.7,2.5-3.1,3.4-4.3,7.3
		s-0.3,18.7-0.3,18.7l6.2,1l3-26.2l2.5-16.4C853.4,176.1,852.3,175,852.1,173.6z"/>
	<path class="st73" d="M858.2,174.6c-0.6,1.3-2,2-3.4,1.8l-2.5,16.4l-3,26.2l7.1,0.2c0,0,2.2-13.3,2.3-17.5c0.2-5.3-2.1-5.9-2-8.3
		c0-0.2,0-0.4,0-0.5c0.4-2.9,3.3-10.7,5.6-14.8C862.9,177.1,858.2,174.6,858.2,174.6z"/>
	<path class="st74" d="M852.1,173.6h-0.5c0.4,1.5,1.6,2.7,3.1,3.2v-0.5C852.8,175.9,852.1,173.6,852.1,173.6z"/>
	<path class="st75" d="M854.7,176.3l-0.1,0.5c1.6,0,3-0.8,3.9-2.1l-0.4-0.2C858.1,174.5,856.7,176.6,854.7,176.3z"/>
	<polygon class="st76" points="853,176 852.9,176.7 854.7,176.8 856.5,177.2 856.6,176.6 854.8,176.4 	"/>
	<polygon class="st76" points="854.6,176.9 855.7,178.3 855.9,177.8 855,176.6 	"/>
	<polygon class="st76" points="853.3,177.4 853.3,178 854.8,176.9 854.5,176.5 	"/>
	
		<rect x="854.4" y="176.2" transform="matrix(0.1535 -0.9881 0.9881 0.1535 549.0375 993.9449)" class="st74" width="0.5" height="0.6"/>
	<path class="st77" d="M855,176.5v0.3 M855,176.9v-0.3v-0.1V176.9z"/>
	<path class="st77" d="M856.4,176.7c0,0.1,0,0.2,0,0.3V176.7l-1.3-0.2C855.5,176.5,856,176.6,856.4,176.7z"/>
	<path class="st77" d="M855.1,176.8l0.1-0.3c0.4,0,0.9,0.1,1.3,0.2l-1.4-0.3L855.1,176.8z"/>
	<path class="st77" d="M853,176.5l0.1-0.3c0.4,0,0.9,0.1,1.3,0.2l-1.4-0.3L853,176.5z"/>
	<polygon class="st77" points="855.7,178.2 855.8,177.8 855.1,176.9 	"/>
	<path class="st78" d="M847.4,174.8c-1.3,0-2.4,3.2-2.4,3.2l5,2C850,180.1,851.2,175,847.4,174.8z"/>
	<path class="st73" d="M861.8,177.1c-3.7-1-4.1,4.2-4.1,4.2l6.7-0.4C864.4,180.9,863.1,177.4,861.8,177.1z"/>
	<path class="st31" d="M857.9,175.7c-0.4,0.2,0.3,1.5,0.3,2.6c0,1.6-0.8,2.1-0.5,3s1.1,1.2,1.6,0.5c0.5-0.8,0.7-1.7,0.4-2.6
		C859.3,177.9,858.3,175.5,857.9,175.7z"/>
	<path class="st31" d="M858.8,179.9l-1,0.9c0,0,1.7,3.4,3,5.6c1.4,2.3,2.6,4.1,3.9,4.8c2.1,1.1,2.5-1.5,2.5-1.5
		c-1-1.6-2.2-3.1-3.6-4.4C861.7,183,858.8,179.9,858.8,179.9z"/>
	<path class="st19" d="M848.7,184.5c-1.8,0.7-3.4,1.6-5,2.6c0,0-0.7,2.6,1.7,2.4c1.5-0.1,3.3-1.3,5.5-2.8c2-1.5,4.9-3.9,4.9-3.9
		l-0.6-1.3C855.1,181.5,851.2,183.3,848.7,184.5z"/>
	<path class="st19" d="M854.7,180.1c-0.6,0.7-0.9,1.6-0.7,2.6c0.2,0.8,1.1,0.8,1.7,0.2s0.1-1.4,0.7-2.9c0.4-1,1.6-1.9,1.3-2.3
		S855.5,179.1,854.7,180.1z"/>
	<path class="st41" d="M834.2,142.6c3.2,0,5.8-5.9,5.8-13.2h-11.6C828.4,136.7,831,142.6,834.2,142.6z"/>
	<path class="st41" d="M835.9,142h-3.4c-0.3,0-0.6,0.3-0.6,0.6s0.3,0.6,0.6,0.6h3.4c0.3,0,0.6-0.3,0.6-0.6l0,0
		C836.5,142.2,836.2,142,835.9,142z"/>
	<rect x="832.8" y="142.6" class="st41" width="2.8" height="5.4"/>
	<path class="st41" d="M836.6,146.5h-4.8c-0.5,0-0.8,0.4-0.8,0.8c0,0.5,0.4,0.8,0.8,0.8h4.8c0.5,0,0.8-0.4,0.8-0.8
		C837.4,146.9,837.1,146.5,836.6,146.5z"/>
	<path class="st41" d="M828.8,132.2h-3c-0.3,0-0.6,0.3-0.6,0.6l0,0l0,0c0,0.3,0.3,0.6,0.6,0.6l0,0l3,1.2c0.3,0,0.5-1.5,0.5-1.8l0,0
		C829.4,132.5,829.1,132.2,828.8,132.2z"/>
	<path class="st41" d="M842.4,132.2h-3c-0.3,0-0.6,0.3-0.6,0.6l0,0l0,0c0,0.3,0.4,1.8,0.7,1.8l2.9-1.2c0.3,0,0.6-0.3,0.6-0.6l0,0
		l0,0C843,132.5,842.7,132.2,842.4,132.2z"/>
	<path class="st42" d="M828.5,132.2h-2.7c-0.3,0-0.6,0.3-0.6,0.6c0,0.3,0.3,0.6,0.6,0.6l3,1.2c0.7,3.5,1.9,6.2,3.5,7.4
		c-0.3,0.1-0.5,0.4-0.5,0.7c0.1,0.3,0.3,0.5,0.6,0.5h0.3v3.4h-1c-0.5,0-0.8,0.4-0.8,0.8c0,0.5,0.4,0.8,0.8,0.8h2.4v-18.7h-5.8
		C828.4,130.4,828.5,131.3,828.5,132.2z"/>
	
		<linearGradient id="SVGID_31_" gradientUnits="userSpaceOnUse" x1="853.39" y1="433.7662" x2="857.86" y2="433.7662" gradientTransform="matrix(1 0 0 1 -18 -298)">
		<stop  offset="0" style="stop-color:#000000"/>
		<stop  offset="0.23" style="stop-color:#373737"/>
		<stop  offset="0.76" style="stop-color:#C0C0C0"/>
		<stop  offset="1" style="stop-color:#FFFFFF"/>
	</linearGradient>
	<path class="st79" d="M836.9,137.6c-0.3,1.4-2.2,4.8-1.1,4.4s2.6-2.9,3.4-5.9c0.4-2.2,0.7-4.4,0.7-6.6h-2.4
		C837.6,132.3,837.4,135,836.9,137.6z"/>
	
		<linearGradient id="SVGID_32_" gradientUnits="userSpaceOnUse" x1="835.11" y1="442.8" x2="835.57" y2="442.8" gradientTransform="matrix(1 0 0 1 0 -298)">
		<stop  offset="0" style="stop-color:#000000"/>
		<stop  offset="0.23" style="stop-color:#373737"/>
		<stop  offset="0.76" style="stop-color:#C0C0C0"/>
		<stop  offset="1" style="stop-color:#FFFFFF"/>
	</linearGradient>
	<rect x="835.1" y="143.1" class="st80" width="0.5" height="3.4"/>
	
		<linearGradient id="SVGID_33_" gradientUnits="userSpaceOnUse" x1="852.45" y1="440.3" x2="854.2401" y2="440.3" gradientTransform="matrix(1 0 0 1 -18 -298)">
		<stop  offset="0" style="stop-color:#000000"/>
		<stop  offset="0.23" style="stop-color:#373737"/>
		<stop  offset="0.76" style="stop-color:#C0C0C0"/>
		<stop  offset="1" style="stop-color:#FFFFFF"/>
	</linearGradient>
	<path class="st81" d="M835.3,142c-0.5,0-0.9,0.1-0.9,0.3s0.4,0.3,0.9,0.3s0.9-0.1,0.9-0.3S835.8,142,835.3,142z"/>
	
		<linearGradient id="SVGID_34_" gradientUnits="userSpaceOnUse" x1="853.21" y1="444.95" x2="854.99" y2="444.95" gradientTransform="matrix(1 0 0 1 -18 -298)">
		<stop  offset="0" style="stop-color:#000000"/>
		<stop  offset="0.23" style="stop-color:#373737"/>
		<stop  offset="0.76" style="stop-color:#C0C0C0"/>
		<stop  offset="1" style="stop-color:#FFFFFF"/>
	</linearGradient>
	<path class="st82" d="M836.1,146.7c-0.5,0-0.9,0.1-0.9,0.2s0.4,0.3,0.9,0.3s0.9-0.1,0.9-0.3S836.6,146.7,836.1,146.7z"/>
	
		<linearGradient id="SVGID_35_" gradientUnits="userSpaceOnUse" x1="858" y1="430.8" x2="860.7" y2="430.8" gradientTransform="matrix(1 0 0 1 -18 -298)">
		<stop  offset="0" style="stop-color:#000000"/>
		<stop  offset="0.23" style="stop-color:#373737"/>
		<stop  offset="0.76" style="stop-color:#C0C0C0"/>
		<stop  offset="1" style="stop-color:#FFFFFF"/>
	</linearGradient>
	<path class="st83" d="M841.3,132.4c-0.8,0-1.3,0.2-1.3,0.4s0.6,0.4,1.3,0.4s1.3-0.2,1.3-0.4S842.1,132.4,841.3,132.4z"/>
</g>
</svg>
